<svg width="56" height="66" viewBox="0 0 56 66" fill="none" xmlns="http://www.w3.org/2000/svg">
<path d="M55.3008 36.0015C55.3008 36.0015 53.03 40.1608 49.9584 41.5352C49.9584 41.5352 51.9065 37.7704 51.9065 30.0974C51.9065 22.4243 47.4365 14.8828 47.4365 14.8828C47.9385 11.7514 47.2692 8.5603 45.5482 5.89506C42.7275 1.87927 43.2295 2.82346 42.2853 0.433105C42.2853 0.433105 39.5842 3.69594 40.8989 12.0024C40.8989 12.0024 34.7079 11.3451 31.6841 15.1577C31.2539 16.0182 30.9073 16.9146 30.6563 17.8468L19.8997 21.6594C19.8997 21.6594 20.3778 24.9701 22.5649 27.0138C23.6047 24.9103 24.4772 24.3486 25.027 24.5159C26.0548 24.8147 26.4492 28.5197 26.4492 28.5197C33.0347 28.2449 33.5247 30.9938 33.5247 30.9938C33.6323 31.2806 33.6323 31.6033 33.5247 31.8901C35.5445 32.428 35.5087 32.5475 35.6999 33.0256C35.9987 34.2924 35.8314 35.6191 35.2577 36.7784C34.6721 37.9377 33.704 38.858 32.5088 39.3839C28.6125 40.9974 30.4292 44.9415 30.4292 44.9415C30.4172 44.0929 30.6563 43.2563 31.1224 42.5511C31.8275 43.7941 32.8554 44.81 34.0984 45.5152C35.3414 46.2203 36.7397 46.5669 38.162 46.531C38.162 46.531 41.6399 46.053 46.6716 50.4871C45.5601 51.5269 44.1737 52.232 42.6678 52.495C42.9785 52.1484 43.3371 51.8496 43.7195 51.5986C41.1738 51.5149 38.6759 52.2559 36.5724 53.6782C35.5206 53.1762 34.3494 52.5428 33.0705 51.742C32.9271 51.6584 32.7956 51.5747 32.6522 51.4791C32.4371 51.3476 32.2219 51.2042 32.0068 51.0608C31.8036 50.9173 31.5885 50.7859 31.3734 50.6305C31.1821 50.499 30.9909 50.3676 30.7997 50.2361C30.5248 50.0449 30.2499 49.8536 29.975 49.6505C29.8196 49.5309 29.6523 49.4234 29.485 49.3039C29.0308 48.9692 28.5647 48.6226 28.0866 48.2521C28.0866 48.2521 28.0508 48.2282 28.003 48.2043C27.991 48.1923 27.9791 48.1923 27.9552 48.1804C27.6803 48.0011 26.9154 47.523 25.9114 46.9135C25.9114 46.9135 25.9114 46.9135 25.8995 46.9135C25.6485 46.7581 25.3975 46.6028 25.1226 46.4474C25.1107 46.4354 25.0867 46.4235 25.0748 46.4235C23.2223 45.3 20.8917 43.9495 19.2184 43.1367C20.0192 44.0929 20.6407 45.1805 21.0829 46.3398C18.095 43.9734 14.4019 42.6706 10.5893 42.6109C6.7886 42.5033 3.05965 43.7104 0 45.9813C0 45.9813 7.1113 45.3478 17.6288 56.1881C28.1464 67.0283 45.0581 68.8569 52.5877 57.0486C54.5717 53.9292 55.7191 50.3676 55.9462 46.7223C56.0777 45.061 56.006 41.9296 55.3008 36.0015Z" fill="#E8B512"/>
<path d="M21.0949 46.2922C20.6526 45.1328 20.0311 44.0452 19.2304 43.0891C22.4334 44.6428 28.0866 48.2283 28.0866 48.2283C31.5168 50.8816 34.3015 52.6027 36.5724 53.6783C38.6759 52.2561 41.1738 51.527 43.7195 51.5987C43.3371 51.8497 42.9785 52.1485 42.6678 52.4951C44.1737 52.2322 45.5601 51.527 46.6716 50.4872C41.6399 46.0531 38.162 46.5312 38.162 46.5312C36.7397 46.567 35.3294 46.2085 34.0984 45.5153C32.8554 44.8101 31.8275 43.7942 31.1224 42.5513C30.6563 43.2564 30.4172 44.093 30.4292 44.9416C30.4292 44.9416 28.6125 40.9975 32.5088 39.384C33.704 38.8582 34.6721 37.9379 35.2577 36.7786C35.8433 35.6192 35.9987 34.2926 35.6999 33.0257C35.5087 32.5476 35.5445 32.4281 33.5247 31.8903C33.6322 31.6034 33.6322 31.2807 33.5247 30.9939C33.5247 30.9939 33.0347 28.245 26.4492 28.5199C26.4492 28.5199 26.0548 24.8148 25.027 24.516C23.9991 24.2173 21.8239 26.4044 19.5292 36.7547C18.9077 39.5394 18.4774 42.0971 18.3459 44.5233C19.3021 45.0253 20.2343 45.6109 21.0949 46.2922Z" fill="#CE8926"/>
</svg>
