<svg width="23" height="24" viewBox="0 0 23 24" fill="none" xmlns="http://www.w3.org/2000/svg">
<path d="M11.59 0.419926C9.34871 0.417948 7.15719 1.08074 5.29266 2.3245C3.42814 3.56825 1.9744 5.33706 1.11532 7.40717C0.256249 9.47728 0.030449 11.7557 0.46649 13.9541C0.90253 16.1526 1.98081 18.1723 3.56494 19.7579C5.14907 21.3434 7.16786 22.4235 9.36593 22.8615C11.564 23.2995 13.8426 23.0757 15.9135 22.2184C17.9844 21.3612 19.7544 19.909 20.9998 18.0456C22.2452 16.1821 22.91 13.9912 22.91 11.7499C22.9113 10.2625 22.6195 8.78942 22.0512 7.41486C21.4829 6.0403 20.6493 4.79121 19.598 3.73899C18.5467 2.68677 17.2983 1.85208 15.9243 1.28257C14.5502 0.713058 13.0774 0.419926 11.59 0.419926ZM10 16.7899L7.89001 14.6799L5.17999 11.9999L7.29001 9.88993L10.01 12.6099L15.88 6.7399L18 8.84992L10 16.7899Z" fill="#28A94A"/>
</svg>
