<svg width="15" height="51" viewBox="0 0 41 51" fill="none" xmlns="http://www.w3.org/2000/svg">
<path d="M35.75 28.4993V20.4168C35.7463 16.8156 34.4684 13.3319 32.1424 10.5825C29.8164 7.83324 26.5925 5.99578 23.0417 5.39558V2.62516C23.0417 1.95107 22.7739 1.30459 22.2972 0.827933C21.8206 0.351278 21.1741 0.0834961 20.5 0.0834961C19.8259 0.0834961 19.1794 0.351278 18.7028 0.827933C18.2261 1.30459 17.9583 1.95107 17.9583 2.62516V5.39558C14.4075 5.99578 11.1836 7.83324 8.8576 10.5825C6.53162 13.3319 5.25365 16.8156 5.25 20.4168V28.4993C3.76681 29.0237 2.48212 29.994 1.57205 31.2772C0.66198 32.5604 0.171085 34.0937 0.166664 35.6668V40.7502C0.166664 41.4243 0.434447 42.0707 0.911102 42.5474C1.38776 43.0241 2.03424 43.2918 2.70833 43.2918H10.6892C11.2745 45.4456 12.5522 47.3469 14.3253 48.7024C16.0983 50.0579 18.2682 50.7923 20.5 50.7923C22.7318 50.7923 24.9017 50.0579 26.6747 48.7024C28.4478 47.3469 29.7255 45.4456 30.3108 43.2918H38.2917C38.9658 43.2918 39.6122 43.0241 40.0889 42.5474C40.5655 42.0707 40.8333 41.4243 40.8333 40.7502V35.6668C40.8289 34.0937 40.338 32.5604 39.4279 31.2772C38.5179 29.994 37.2332 29.0237 35.75 28.4993ZM10.3333 20.4168C10.3333 17.7205 11.4045 15.1345 13.3111 13.2279C15.2177 11.3213 17.8036 10.2502 20.5 10.2502C23.1964 10.2502 25.7823 11.3213 27.6889 13.2279C29.5955 15.1345 30.6667 17.7205 30.6667 20.4168V28.0418H10.3333V20.4168ZM20.5 45.8335C19.6129 45.8281 18.7426 45.5907 17.9757 45.1448C17.2088 44.6989 16.5719 44.0601 16.1283 43.2918H24.8717C24.4281 44.0601 23.7912 44.6989 23.0243 45.1448C22.2574 45.5907 21.3871 45.8281 20.5 45.8335ZM35.75 38.2085H5.25V35.6668C5.25 34.9927 5.51778 34.3463 5.99443 33.8696C6.47109 33.3929 7.11757 33.1252 7.79166 33.1252H33.2083C33.8824 33.1252 34.5289 33.3929 35.0056 33.8696C35.4822 34.3463 35.75 34.9927 35.75 35.6668V38.2085Z" fill="#CE8926"/>
</svg>
