<svg width="25" height="25" viewBox="0 0 25 25" fill="none" xmlns="http://www.w3.org/2000/svg">
<circle cx="12.5" cy="12.5" r="12.5" fill="#CE8926"/>
<path d="M16.75 13.3357V11.0832C16.749 10.0795 16.3928 9.10867 15.7446 8.34247C15.0964 7.57627 14.1979 7.06419 13.2083 6.89692V6.12484C13.2083 5.93698 13.1337 5.75681 13.0009 5.62397C12.868 5.49113 12.6879 5.4165 12.5 5.4165C12.3121 5.4165 12.132 5.49113 11.9991 5.62397C11.8663 5.75681 11.7917 5.93698 11.7917 6.12484V6.89692C10.8021 7.06419 9.90362 7.57627 9.2554 8.34247C8.60717 9.10867 8.25102 10.0795 8.25 11.0832V13.3357C7.83665 13.4818 7.47862 13.7522 7.225 14.1098C6.97137 14.4674 6.83457 14.8948 6.83333 15.3332V16.7498C6.83333 16.9377 6.90796 17.1179 7.0408 17.2507C7.17364 17.3835 7.3538 17.4582 7.54167 17.4582H9.76583C9.92895 18.0584 10.285 18.5883 10.7792 18.966C11.2733 19.3438 11.878 19.5485 12.5 19.5485C13.122 19.5485 13.7267 19.3438 14.2208 18.966C14.715 18.5883 15.071 18.0584 15.2342 17.4582H17.4583C17.6462 17.4582 17.8264 17.3835 17.9592 17.2507C18.092 17.1179 18.1667 16.9377 18.1667 16.7498V15.3332C18.1654 14.8948 18.0286 14.4674 17.775 14.1098C17.5214 13.7522 17.1633 13.4818 16.75 13.3357ZM9.66667 11.0832C9.66667 10.3317 9.96518 9.61105 10.4965 9.0797C11.0279 8.54835 11.7486 8.24984 12.5 8.24984C13.2514 8.24984 13.9721 8.54835 14.5035 9.0797C15.0348 9.61105 15.3333 10.3317 15.3333 11.0832V13.2082H9.66667V11.0832ZM12.5 18.1665C12.2528 18.165 12.0102 18.0988 11.7965 17.9746C11.5828 17.8503 11.4053 17.6723 11.2817 17.4582H13.7183C13.5947 17.6723 13.4172 17.8503 13.2035 17.9746C12.9898 18.0988 12.7472 18.165 12.5 18.1665ZM16.75 16.0415H8.25V15.3332C8.25 15.1453 8.32463 14.9651 8.45747 14.8323C8.5903 14.6995 8.77047 14.6248 8.95833 14.6248H16.0417C16.2295 14.6248 16.4097 14.6995 16.5425 14.8323C16.6754 14.9651 16.75 15.1453 16.75 15.3332V16.0415Z" fill="white"/>
</svg>
