<svg width="61" height="63" viewBox="0 0 61 63" fill="none" xmlns="http://www.w3.org/2000/svg">
<path d="M45.75 35.4993V27.4168C45.7464 23.8156 44.4684 20.3319 42.1424 17.5825C39.8164 14.8332 36.5925 12.9958 33.0417 12.3956V9.62516C33.0417 8.95107 32.7739 8.30459 32.2972 7.82793C31.8206 7.35128 31.1741 7.0835 30.5 7.0835C29.8259 7.0835 29.1794 7.35128 28.7028 7.82793C28.2261 8.30459 27.9583 8.95107 27.9583 9.62516V12.3956C24.4075 12.9958 21.1836 14.8332 18.8576 17.5825C16.5316 20.3319 15.2537 23.8156 15.25 27.4168V35.4993C13.7668 36.0237 12.4821 36.994 11.5721 38.2772C10.662 39.5604 10.1711 41.0937 10.1667 42.6668V47.7502C10.1667 48.4243 10.4345 49.0707 10.9111 49.5474C11.3878 50.0241 12.0342 50.2918 12.7083 50.2918H20.6892C21.2745 52.4456 22.5522 54.3469 24.3253 55.7024C26.0983 57.0579 28.2682 57.7923 30.5 57.7923C32.7318 57.7923 34.9017 57.0579 36.6747 55.7024C38.4478 54.3469 39.7255 52.4456 40.3108 50.2918H48.2917C48.9658 50.2918 49.6122 50.0241 50.0889 49.5474C50.5656 49.0707 50.8333 48.4243 50.8333 47.7502V42.6668C50.8289 41.0937 50.338 39.5604 49.428 38.2772C48.5179 36.994 47.2332 36.0237 45.75 35.4993ZM20.3333 27.4168C20.3333 24.7205 21.4045 22.1345 23.3111 20.2279C25.2177 18.3213 27.8036 17.2502 30.5 17.2502C33.1964 17.2502 35.7823 18.3213 37.6889 20.2279C39.5955 22.1345 40.6667 24.7205 40.6667 27.4168V35.0418H20.3333V27.4168ZM30.5 52.8335C29.6129 52.8281 28.7426 52.5907 27.9757 52.1448C27.2088 51.6989 26.5719 51.0601 26.1283 50.2918H34.8717C34.4281 51.0601 33.7912 51.6989 33.0243 52.1448C32.2574 52.5907 31.3871 52.8281 30.5 52.8335ZM45.75 45.2085H15.25V42.6668C15.25 41.9927 15.5178 41.3463 15.9944 40.8696C16.4711 40.3929 17.1176 40.1252 17.7917 40.1252H43.2083C43.8824 40.1252 44.5289 40.3929 45.0056 40.8696C45.4822 41.3463 45.75 41.9927 45.75 42.6668V45.2085Z" fill="#CE8926"/>
<circle cx="46" cy="14" r="14" fill="#CC1D1E"/>
<path d="M46.696 20V8.656H45.656C45.5813 9.08267 45.4427 9.43467 45.24 9.712C45.0373 9.98933 44.7867 10.208 44.488 10.368C44.2 10.528 43.8747 10.64 43.512 10.704C43.1493 10.7573 42.776 10.784 42.392 10.784V11.872H45.336V20H46.696Z" fill="white"/>
<path d="M46.696 20V21H47.696V20H46.696ZM46.696 8.656H47.696V7.656H46.696V8.656ZM45.656 8.656V7.656H44.8158L44.671 8.48362L45.656 8.656ZM45.24 9.712L46.0474 10.302L46.0474 10.302L45.24 9.712ZM44.488 10.368L44.0158 9.48652L44.009 9.49013L44.0024 9.49384L44.488 10.368ZM43.512 10.704L43.6575 11.6934L43.6717 11.6913L43.6858 11.6888L43.512 10.704ZM42.392 10.784V9.784H41.392V10.784H42.392ZM42.392 11.872H41.392V12.872H42.392V11.872ZM45.336 11.872H46.336V10.872H45.336V11.872ZM45.336 20H44.336V21H45.336V20ZM47.696 20V8.656H45.696V20H47.696ZM46.696 7.656H45.656V9.656H46.696V7.656ZM44.671 8.48362C44.616 8.79765 44.5244 8.99641 44.4326 9.12198L46.0474 10.302C46.361 9.87292 46.5467 9.36768 46.641 8.82838L44.671 8.48362ZM44.4326 9.12198C44.3171 9.27999 44.1804 9.39832 44.0158 9.48652L44.9602 11.2495C45.3929 11.0177 45.7575 10.6987 46.0474 10.302L44.4326 9.12198ZM44.0024 9.49384C43.8222 9.59395 43.6043 9.67226 43.3382 9.71922L43.6858 11.6888C44.1451 11.6077 44.5778 11.4621 44.9736 11.2422L44.0024 9.49384ZM43.3665 9.71464C43.0542 9.76056 42.7296 9.784 42.392 9.784V11.784C42.8224 11.784 43.2444 11.7541 43.6575 11.6934L43.3665 9.71464ZM41.392 10.784V11.872H43.392V10.784H41.392ZM42.392 12.872H45.336V10.872H42.392V12.872ZM44.336 11.872V20H46.336V11.872H44.336ZM45.336 21H46.696V19H45.336V21Z" fill="white"/>
</svg>
