<svg width="16" height="15" viewBox="0 0 16 15" fill="none" xmlns="http://www.w3.org/2000/svg">
<path d="M7.90023 14.82C6.48412 14.82 5.09981 14.4001 3.92236 13.6133C2.7449 12.8266 1.82718 11.7084 1.28526 10.4C0.743333 9.09171 0.601546 7.65207 0.877816 6.26316C1.15409 4.87426 1.83601 3.59846 2.83735 2.59712C3.83869 1.59577 5.11449 0.913852 6.5034 0.637582C7.8923 0.361312 9.33193 0.503099 10.6403 1.04502C11.9486 1.58695 13.0668 2.50468 13.8536 3.68214C14.6403 4.85959 15.0602 6.2439 15.0602 7.66001C15.0602 9.55896 14.3059 11.3801 12.9631 12.7229C11.6204 14.0656 9.79918 14.82 7.90023 14.82ZM7.90023 2.42002C6.86386 2.42002 5.85077 2.72733 4.98905 3.30311C4.12734 3.87889 3.45571 4.69725 3.05911 5.65473C2.6625 6.61222 2.55873 7.66583 2.76092 8.68229C2.96311 9.69875 3.46217 10.6324 4.195 11.3652C4.92783 12.0981 5.86151 12.5971 6.87797 12.7993C7.89443 13.0015 8.94801 12.8977 9.9055 12.5011C10.863 12.1045 11.6814 11.4329 12.2571 10.5712C12.8329 9.70949 13.1403 8.69639 13.1403 7.66001C13.1403 6.27028 12.5882 4.93747 11.6055 3.95478C10.6228 2.97209 9.28997 2.42002 7.90023 2.42002Z" fill="#CE8926"/>
</svg>
