<svg width="24" height="24" viewBox="0 0 24 24" fill="none" xmlns="http://www.w3.org/2000/svg">
<path d="M11.8498 0.419926C9.6085 0.417948 7.41698 1.08074 5.55246 2.3245C3.68793 3.56825 2.23416 5.33706 1.37509 7.40717C0.516015 9.47728 0.290215 11.7557 0.726255 13.9541C1.1623 16.1526 2.24061 18.1723 3.82474 19.7579C5.40887 21.3434 7.42765 22.4235 9.62573 22.8615C11.8238 23.2995 14.1024 23.0757 16.1733 22.2184C18.2441 21.3612 20.0142 19.909 21.2596 18.0456C22.505 16.1821 23.1698 13.9912 23.1698 11.7499C23.1711 10.2625 22.8793 8.78942 22.311 7.41486C21.7427 6.0403 20.909 4.79121 19.8578 3.73899C18.8065 2.68677 17.5581 1.85208 16.1841 1.28257C14.81 0.713058 13.3372 0.419926 11.8498 0.419926ZM16.8498 14.6799L14.7398 16.7899L11.7998 13.8599L8.85977 16.7899L6.74978 14.6799L9.68979 11.7499L6.74978 8.80991L8.85977 6.69992L11.7998 9.62992L14.7398 6.69992L16.8498 8.80991L13.9998 11.7499L16.8498 14.6799Z" fill="#E83E3D"/>
</svg>
