<svg width="20" height="20" viewBox="0 0 20 20" fill="none" xmlns="http://www.w3.org/2000/svg">
<path d="M9.99998 6.33344C9.27479 6.33344 8.56587 6.54849 7.96289 6.95139C7.35991 7.35428 6.88995 7.92694 6.61243 8.59693C6.3349 9.26693 6.26229 10.0042 6.40377 10.7154C6.54525 11.4267 6.89447 12.08 7.40726 12.5928C7.92005 13.1056 8.57339 13.4548 9.28465 13.5963C9.99592 13.7378 10.7332 13.6652 11.4032 13.3877C12.0732 13.1101 12.6458 12.6402 13.0487 12.0372C13.4516 11.4342 13.6667 10.7253 13.6667 10.0001C13.6667 9.02765 13.2803 8.09502 12.5927 7.40738C11.9051 6.71975 10.9724 6.33344 9.99998 6.33344ZM9.99998 11.8334C9.63739 11.8334 9.28293 11.7259 8.98144 11.5245C8.67995 11.323 8.44497 11.0367 8.30621 10.7017C8.16744 10.3667 8.13114 9.99807 8.20188 9.64244C8.27262 9.28681 8.44723 8.96014 8.70362 8.70374C8.96002 8.44735 9.28669 8.27274 9.64232 8.202C9.99795 8.13126 10.3666 8.16757 10.7016 8.30633C11.0366 8.44509 11.3229 8.68007 11.5243 8.98156C11.7258 9.28305 11.8333 9.63751 11.8333 10.0001C11.8333 10.4863 11.6402 10.9527 11.2963 11.2965C10.9525 11.6403 10.4862 11.8334 9.99998 11.8334ZM18.9008 9.34927L16.7467 7.25011V4.17011C16.7467 3.92699 16.6501 3.69383 16.4782 3.52193C16.3063 3.35002 16.0731 3.25344 15.83 3.25344H12.7958L10.6508 1.09927C10.5656 1.01336 10.4642 0.945161 10.3525 0.898623C10.2408 0.852085 10.121 0.828125 9.99998 0.828125C9.87897 0.828125 9.75916 0.852085 9.64746 0.898623C9.53575 0.945161 9.43437 1.01336 9.34915 1.09927L7.24998 3.25344H4.16998C3.92687 3.25344 3.69371 3.35002 3.5218 3.52193C3.3499 3.69383 3.25332 3.92699 3.25332 4.17011V7.25011L1.09915 9.34927C1.01323 9.43449 0.945039 9.53587 0.898501 9.64758C0.851963 9.75928 0.828003 9.8791 0.828003 10.0001C0.828003 10.1211 0.851963 10.2409 0.898501 10.3526C0.945039 10.4643 1.01323 10.5657 1.09915 10.6509L3.25332 12.7959V15.8301C3.25332 16.0732 3.3499 16.3064 3.5218 16.4783C3.69371 16.6502 3.92687 16.7468 4.16998 16.7468H7.24998L9.39498 18.9009C9.4802 18.9869 9.58158 19.0551 9.69329 19.1016C9.80499 19.1481 9.92481 19.1721 10.0458 19.1721C10.1668 19.1721 10.2866 19.1481 10.3983 19.1016C10.5101 19.0551 10.6114 18.9869 10.6967 18.9009L12.8417 16.7468H15.8758C16.1189 16.7468 16.3521 16.6502 16.524 16.4783C16.6959 16.3064 16.7925 16.0732 16.7925 15.8301V12.7959L18.9467 10.6509C19.0296 10.5627 19.0943 10.459 19.137 10.3456C19.1796 10.2323 19.1994 10.1116 19.1951 9.99055C19.1909 9.86952 19.1627 9.75053 19.1121 9.64046C19.0616 9.53039 18.9898 9.43142 18.9008 9.34927ZM15.1883 11.7693C15.1017 11.8542 15.0328 11.9554 14.9856 12.0671C14.9384 12.1788 14.9138 12.2988 14.9133 12.4201V14.9134H12.42C12.2987 14.9139 12.1787 14.9385 12.067 14.9857C11.9553 15.0329 11.854 15.1018 11.7692 15.1884L9.99998 16.9576L8.23082 15.1884C8.14592 15.1018 8.04468 15.0329 7.93296 14.9857C7.82124 14.9385 7.70127 14.9139 7.57998 14.9134H5.08665V12.4201C5.08615 12.2988 5.06158 12.1788 5.01438 12.0671C4.96717 11.9554 4.89827 11.8542 4.81165 11.7693L3.04248 10.0001L4.81165 8.23094C4.89827 8.14604 4.96717 8.0448 5.01438 7.93308C5.06158 7.82136 5.08615 7.70139 5.08665 7.58011V5.08677H7.57998C7.70127 5.08627 7.82124 5.0617 7.93296 5.0145C8.04468 4.96729 8.14592 4.89839 8.23082 4.81177L9.99998 3.04261L11.7692 4.81177C11.854 4.89839 11.9553 4.96729 12.067 5.0145C12.1787 5.0617 12.2987 5.08627 12.42 5.08677H14.9133V7.58011C14.9138 7.70139 14.9384 7.82136 14.9856 7.93308C15.0328 8.0448 15.1017 8.14604 15.1883 8.23094L16.9575 10.0001L15.1883 11.7693Z" fill="#B8B7B7"/>
</svg>
