<svg width="184" height="27" viewBox="0 0 184 27" fill="none" xmlns="http://www.w3.org/2000/svg">
<path d="M67.4 0H13.23C5.92328 0 0 5.92328 0 13.23V13.24C0 20.5467 5.92328 26.47 13.23 26.47H67.4C74.7067 26.47 80.63 20.5467 80.63 13.24V13.23C80.63 5.92328 74.7067 0 67.4 0Z" fill="url(#paint0_linear_280_701)"/>
<path d="M26.87 8.52002L30.22 17.09H28.96L28.03 14.51H24.4L23.4 17.09H22.24L25.57 8.52002H26.87ZM27.67 13.52L26.24 9.52002L24.79 13.52H27.67Z" fill="#F5F5F5"/>
<path d="M35.42 17.0898V16.2498C35.2608 16.5906 34.9786 16.8585 34.63 16.9998C34.2524 17.1532 33.8475 17.2281 33.44 17.2198C33.0087 17.2328 32.5804 17.1437 32.19 16.9598C31.8444 16.7921 31.5403 16.5496 31.3 16.2498C31.0642 15.9513 30.8847 15.6125 30.77 15.2498C30.648 14.8445 30.5873 14.4231 30.59 13.9998C30.5898 13.5774 30.6469 13.1569 30.76 12.7498C30.8695 12.385 31.0496 12.0453 31.29 11.7498C31.5309 11.4532 31.835 11.2141 32.18 11.0498C32.5684 10.8705 32.9923 10.7817 33.42 10.7898C33.5944 10.793 33.7683 10.8097 33.94 10.8398C34.1279 10.8759 34.3121 10.9295 34.49 10.9998C34.674 11.0802 34.8484 11.1808 35.01 11.2998C35.1745 11.4298 35.3135 11.5892 35.42 11.7698V8.56982H36.42V17.1398L35.42 17.0898ZM31.71 14.8898C31.7815 15.1554 31.9 15.4061 32.06 15.6298C32.2184 15.8434 32.4237 16.0179 32.66 16.1398C32.9255 16.2772 33.2211 16.346 33.52 16.3398C33.8236 16.3488 34.124 16.2763 34.39 16.1298C34.6264 16.0031 34.8288 15.8213 34.98 15.5998C35.1336 15.3714 35.2454 15.1174 35.31 14.8498C35.3777 14.5716 35.4113 14.2862 35.41 13.9998C35.4125 13.7002 35.3789 13.4014 35.31 13.1098C35.2386 12.8411 35.1201 12.5871 34.96 12.3598C34.8042 12.1413 34.5985 11.963 34.36 11.8398C34.0806 11.7014 33.7718 11.6328 33.46 11.6398C33.1532 11.6295 32.8492 11.7021 32.58 11.8498C32.3449 11.9752 32.1479 12.1618 32.01 12.3898C31.8577 12.625 31.7493 12.8859 31.69 13.1598C31.6294 13.4492 31.5993 13.7442 31.6 14.0398C31.6015 14.3266 31.6385 14.6121 31.71 14.8898Z" fill="#F5F5F5"/>
<path d="M37.87 12.72C37.9887 12.3508 38.1828 12.0103 38.44 11.72C38.6982 11.4187 39.0236 11.1823 39.39 11.03C39.7999 10.8518 40.2431 10.7632 40.69 10.77C41.137 10.7622 41.5804 10.8509 41.99 11.03C42.3519 11.1853 42.6735 11.4213 42.93 11.72C43.1903 12.0097 43.3878 12.3502 43.51 12.72C43.7635 13.5511 43.7635 14.4389 43.51 15.27C43.3868 15.6393 43.1894 15.9796 42.93 16.27C42.6707 16.5657 42.3499 16.8012 41.99 16.96C41.5775 17.1274 41.1352 17.2091 40.69 17.2C40.245 17.2082 39.8028 17.1266 39.39 16.96C39.0257 16.8039 38.7011 16.5681 38.44 16.27C38.1835 15.9792 37.9895 15.6389 37.87 15.27C37.6031 14.441 37.6031 13.5491 37.87 12.72ZM38.87 15C38.959 15.2693 39.1019 15.5177 39.29 15.73C39.458 15.9271 39.6706 16.0814 39.91 16.18C40.1463 16.2846 40.4017 16.3391 40.66 16.34C40.9182 16.3371 41.1732 16.2827 41.41 16.18C41.6452 16.0787 41.8539 15.9248 42.02 15.73C42.2081 15.5177 42.351 15.2693 42.44 15C42.5446 14.6772 42.5953 14.3393 42.59 14C42.5942 13.6608 42.5436 13.3231 42.44 13C42.351 12.7307 42.2081 12.4823 42.02 12.27C41.8542 12.0724 41.6456 11.9151 41.41 11.81C41.1732 11.7073 40.9182 11.6529 40.66 11.65C40.4017 11.651 40.1463 11.7054 39.91 11.81C39.6699 11.9122 39.4574 12.0698 39.29 12.27C39.1019 12.4823 38.959 12.7307 38.87 13C38.7665 13.3231 38.7159 13.6608 38.72 14C38.7245 14.341 38.7853 14.6789 38.9 15H38.87Z" fill="#F5F5F5"/>
<path d="M47.55 10.8898V11.7898H46.31V15.6398C46.2975 15.736 46.2975 15.8335 46.31 15.9298C46.3285 15.9989 46.371 16.0593 46.43 16.0998C46.4989 16.1436 46.5784 16.1677 46.66 16.1698C46.7898 16.1814 46.9203 16.1814 47.05 16.1698H47.52V17.0698H46.74C46.5124 17.0707 46.2851 17.054 46.06 17.0198C45.8949 16.9943 45.7396 16.9253 45.61 16.8198C45.4825 16.7138 45.3915 16.5704 45.35 16.4098C45.2833 16.1861 45.2529 15.9531 45.26 15.7198V11.7898H44.21V10.8898H45.26V9.02979H46.26V10.8898H47.55Z" fill="#F5F5F5"/>
<path d="M53.44 17.22C53.2093 17.2322 52.983 17.1532 52.81 17C52.6421 16.7994 52.5595 16.5409 52.58 16.28C52.3114 16.5991 51.9678 16.8465 51.58 17C51.1948 17.1514 50.7838 17.2261 50.37 17.22C50.104 17.2215 49.8388 17.1913 49.58 17.13C49.3451 17.0756 49.1238 16.9735 48.93 16.83C48.7388 16.6888 48.5845 16.5036 48.48 16.29C48.3702 16.0414 48.3156 15.7718 48.32 15.5C48.308 15.1997 48.3699 14.901 48.5 14.63C48.6156 14.415 48.78 14.23 48.98 14.09C49.1823 13.944 49.4093 13.8356 49.65 13.77C49.9 13.7 50.16 13.64 50.42 13.59C50.68 13.54 50.97 13.49 51.22 13.46C51.4457 13.4341 51.6694 13.394 51.89 13.34C52.0564 13.3008 52.2108 13.2218 52.34 13.11C52.3979 13.055 52.443 12.988 52.4724 12.9138C52.5018 12.8395 52.5146 12.7597 52.51 12.68C52.5221 12.491 52.4768 12.3028 52.38 12.14C52.3027 12.0076 52.1925 11.8973 52.06 11.82C51.9232 11.7467 51.7741 11.6992 51.62 11.68C51.4568 11.6705 51.2932 11.6705 51.13 11.68C50.7546 11.6702 50.3829 11.7563 50.05 11.93C49.8938 12.0269 49.7672 12.1649 49.6843 12.329C49.6014 12.493 49.5653 12.6768 49.58 12.86H48.58C48.5839 12.5129 48.6659 12.1711 48.82 11.86C48.9582 11.6025 49.1573 11.3828 49.4 11.22C49.6492 11.0446 49.9316 10.922 50.23 10.86C50.5581 10.7857 50.8936 10.7489 51.23 10.75C51.5078 10.7497 51.7852 10.7698 52.06 10.81C52.323 10.8476 52.5771 10.9323 52.81 11.06C53.0355 11.1789 53.2227 11.3592 53.35 11.58C53.5002 11.8482 53.5728 12.1529 53.56 12.46V15.65C53.5396 15.8261 53.5396 16.0039 53.56 16.18C53.56 16.29 53.68 16.35 53.84 16.35C53.9459 16.3466 54.0505 16.3263 54.15 16.29V17.08C53.9287 17.1851 53.6847 17.2333 53.44 17.22ZM52.01 14.1L51.36 14.21L50.67 14.3C50.4568 14.3346 50.2486 14.3951 50.05 14.48C49.8705 14.5478 49.7143 14.6659 49.6 14.82C49.4998 14.9649 49.4396 15.1337 49.4256 15.3093C49.4115 15.4849 49.4441 15.6611 49.52 15.82C49.5859 15.9339 49.6786 16.03 49.79 16.1C49.9053 16.1771 50.0343 16.2314 50.17 16.26C50.318 16.2915 50.4687 16.3082 50.62 16.31C50.9161 16.3157 51.2107 16.2682 51.49 16.17C51.7046 16.0929 51.9018 15.974 52.07 15.82C52.2182 15.6958 52.3347 15.5381 52.41 15.36C52.4784 15.2161 52.5159 15.0594 52.52 14.9V13.9C52.3636 13.9972 52.1908 14.065 52.01 14.1Z" fill="#F5F5F5"/>
<path d="M56.05 10.8898V12.1998C56.2482 11.7521 56.5624 11.3655 56.96 11.0798C57.3711 10.8288 57.8493 10.7101 58.33 10.7398V11.8199C57.9892 11.8165 57.6506 11.874 57.33 11.9898C57.0588 12.0909 56.8178 12.2596 56.63 12.4799C56.4465 12.7118 56.3167 12.9816 56.25 13.2698C56.1656 13.6167 56.1252 13.9729 56.13 14.3298V17.0898H55.13V10.8898H56.05Z" fill="#F5F5F5"/>
<path d="M170.35 0H116.18C108.873 0 102.95 5.92328 102.95 13.23V13.24C102.95 20.5467 108.873 26.47 116.18 26.47H170.35C177.657 26.47 183.58 20.5467 183.58 13.24V13.23C183.58 5.92328 177.657 0 170.35 0Z" fill="url(#paint1_linear_280_701)"/>
<path d="M118.38 8.52002L121.71 17.09H120.45L119.51 14.51H115.91L114.91 17.09H113.75L117.08 8.52002H118.38ZM119.17 13.52L117.71 9.59003L116.26 13.59L119.17 13.52Z" fill="#F5F5F5"/>
<path d="M123.46 10.89V11.73C123.619 11.3893 123.901 11.1213 124.25 10.98C124.625 10.8172 125.031 10.7354 125.44 10.74C125.875 10.7301 126.307 10.8226 126.7 11.01C127.045 11.1748 127.346 11.4179 127.58 11.72C127.82 12.0175 128.003 12.3564 128.12 12.72C128.242 13.1253 128.303 13.5467 128.3 13.97C128.303 14.39 128.242 14.808 128.12 15.21C128.015 15.5767 127.835 15.9173 127.59 16.21C127.352 16.5032 127.052 16.7391 126.71 16.9C126.321 17.0748 125.897 17.1602 125.47 17.15C125.295 17.1518 125.121 17.1351 124.95 17.1C124.762 17.0688 124.578 17.0185 124.4 16.95C124.211 16.8796 124.035 16.7782 123.88 16.65C123.708 16.5294 123.565 16.3723 123.46 16.19V19.39H122.46V10.89H123.46ZM127.12 13.09C127.053 12.8228 126.934 12.5714 126.77 12.35C126.621 12.1319 126.417 11.9562 126.18 11.84C125.914 11.7049 125.619 11.6363 125.32 11.64C125.013 11.6297 124.709 11.7023 124.44 11.85C124.206 11.9795 124.004 12.1607 123.85 12.38C123.696 12.6084 123.585 12.8624 123.52 13.13C123.452 13.4081 123.418 13.6936 123.42 13.98C123.421 14.28 123.458 14.5788 123.53 14.87C123.598 15.1382 123.713 15.3922 123.87 15.62C124.035 15.8339 124.243 16.011 124.48 16.14C124.759 16.2807 125.068 16.3495 125.38 16.34C125.687 16.3503 125.991 16.2777 126.26 16.13C126.491 15.9988 126.687 15.8135 126.83 15.59C126.979 15.3541 127.084 15.0933 127.14 14.82C127.205 14.5277 127.238 14.2293 127.24 13.93C127.24 13.6457 127.2 13.3629 127.12 13.09Z" fill="#F5F5F5"/>
<path d="M134.28 17.22C134.049 17.2322 133.823 17.1532 133.65 17C133.566 16.8994 133.502 16.7831 133.462 16.6579C133.423 16.5326 133.409 16.4008 133.42 16.27C133.155 16.5949 132.81 16.8463 132.42 17C132.035 17.1514 131.624 17.2261 131.21 17.22C130.944 17.2215 130.679 17.1913 130.42 17.13C130.184 17.0776 129.963 16.9753 129.77 16.83C129.579 16.6887 129.424 16.5035 129.32 16.29C129.206 16.0428 129.151 15.7722 129.16 15.5C129.147 15.1996 129.209 14.9007 129.34 14.63C129.453 14.4131 129.618 14.2276 129.82 14.09C130.022 13.944 130.249 13.8356 130.49 13.77C130.742 13.69 130.999 13.6298 131.26 13.59C131.54 13.53 131.81 13.49 132.06 13.46C132.286 13.4341 132.509 13.394 132.73 13.34C132.896 13.3007 133.051 13.2218 133.18 13.11C133.239 13.0534 133.284 12.9848 133.314 12.9088C133.343 12.8328 133.355 12.7513 133.35 12.67C133.359 12.4813 133.313 12.2941 133.22 12.13C133.142 12.0004 133.032 11.8934 132.9 11.82C132.76 11.7452 132.608 11.6977 132.45 11.68C132.29 11.6701 132.13 11.6701 131.97 11.68C131.594 11.6656 131.221 11.7519 130.89 11.93C130.734 12.0268 130.607 12.1649 130.524 12.329C130.441 12.493 130.405 12.6767 130.42 12.86H129.42C129.422 12.5127 129.505 12.1706 129.66 11.86C129.798 11.6025 129.997 11.3828 130.24 11.22C130.486 11.0463 130.765 10.9238 131.06 10.86C131.388 10.7865 131.724 10.7496 132.06 10.75C132.338 10.7497 132.615 10.7698 132.89 10.81C133.154 10.8426 133.409 10.9276 133.64 11.06C133.865 11.1789 134.053 11.3592 134.18 11.58C134.331 11.8478 134.404 12.1528 134.39 12.46V15.65C134.37 15.8261 134.37 16.0039 134.39 16.18C134.39 16.29 134.51 16.35 134.67 16.35C134.777 16.3476 134.882 16.3238 134.98 16.28V17.08C134.762 17.1835 134.521 17.2316 134.28 17.22ZM132.85 14.1L132.2 14.21L131.51 14.3C131.297 14.3314 131.089 14.3885 130.89 14.47C130.709 14.5456 130.551 14.6661 130.43 14.82C130.311 14.9968 130.251 15.207 130.26 15.42C130.254 15.5697 130.288 15.7183 130.36 15.85C130.429 15.9619 130.521 16.0575 130.63 16.13C130.747 16.2047 130.875 16.2588 131.01 16.29C131.158 16.3214 131.309 16.3382 131.46 16.34C131.756 16.3456 132.051 16.2982 132.33 16.2C132.542 16.1171 132.738 15.9988 132.91 15.85C133.055 15.7229 133.171 15.566 133.25 15.39C133.318 15.246 133.356 15.0893 133.36 14.93V13.93C133.202 14.0167 133.029 14.0743 132.85 14.1Z" fill="#F5F5F5"/>
<path d="M140.48 17.0898V16.2498C140.315 16.5866 140.035 16.8529 139.69 16.9998C139.312 17.1514 138.907 17.2262 138.5 17.2198C138.069 17.2291 137.642 17.1402 137.25 16.9598C136.903 16.7947 136.598 16.5518 136.36 16.2498C136.121 15.9519 135.938 15.613 135.82 15.2498C135.698 14.8445 135.637 14.4231 135.64 13.9998C135.638 13.5766 135.699 13.1553 135.82 12.7498C135.926 12.3835 136.106 12.043 136.35 11.7498C136.587 11.4534 136.888 11.2142 137.23 11.0498C137.622 10.8707 138.049 10.7819 138.48 10.7898C138.651 10.7926 138.822 10.8093 138.99 10.8398C139.179 10.8732 139.363 10.9268 139.54 10.9998C139.727 11.0801 139.905 11.1807 140.07 11.2998C140.232 11.4286 140.371 11.5842 140.48 11.7598V8.56982H141.48V17.1398L140.48 17.0898ZM136.82 14.8898C136.887 15.157 137.006 15.4084 137.17 15.6298C137.326 15.8452 137.532 16.0201 137.77 16.1398C138.032 16.276 138.324 16.3448 138.62 16.3398C138.927 16.3501 139.231 16.2776 139.5 16.1298C139.736 16.0031 139.939 15.8213 140.09 15.5998C140.244 15.3714 140.355 15.1174 140.42 14.8498C140.488 14.5716 140.521 14.2862 140.52 13.9998C140.519 13.6998 140.482 13.401 140.41 13.1098C140.346 12.8401 140.231 12.5854 140.07 12.3598C139.91 12.1411 139.701 11.963 139.46 11.8398C139.181 11.6991 138.872 11.6303 138.56 11.6398C138.256 11.6308 137.956 11.7034 137.69 11.8498C137.454 11.9776 137.254 12.1635 137.11 12.3898C136.961 12.6256 136.856 12.8865 136.8 13.1598C136.736 13.4489 136.703 13.7438 136.7 14.0398C136.7 14.3274 136.74 14.6135 136.82 14.8898Z" fill="#F5F5F5"/>
<path d="M144 10.8897V12.1897C144.205 11.7458 144.522 11.3631 144.92 11.0797C145.331 10.8274 145.809 10.7087 146.29 10.7397V11.8197C145.933 11.8134 145.577 11.871 145.24 11.9897C144.969 12.0908 144.728 12.2595 144.54 12.4797C144.36 12.7142 144.231 12.9831 144.16 13.2697C144.076 13.6166 144.035 13.9727 144.04 14.3297V17.0897H143.04V10.8897H144Z" fill="#F5F5F5"/>
<path d="M147.13 9.77002V8.52002H148.13V9.77002H147.13ZM148.13 10.89V17.09H147.13V10.89H148.13Z" fill="#F5F5F5"/>
<path d="M150.71 10.8899V11.8899C150.902 11.5317 151.192 11.2354 151.546 11.0354C151.9 10.8354 152.304 10.7399 152.71 10.7599C153.051 10.755 153.39 10.8126 153.71 10.9299C153.965 11.0308 154.191 11.1921 154.37 11.3999C154.539 11.6067 154.659 11.8496 154.72 12.1099C154.791 12.4113 154.825 12.7203 154.82 13.0299V17.1099H153.82V12.9099C153.829 12.7439 153.804 12.5777 153.747 12.4214C153.691 12.2651 153.603 12.1217 153.49 11.9999C153.366 11.8829 153.22 11.7924 153.06 11.7339C152.9 11.6754 152.73 11.6503 152.56 11.6599C152.283 11.6532 152.007 11.7043 151.75 11.8099C151.531 11.8957 151.335 12.0329 151.18 12.2099C151.031 12.3948 150.916 12.6047 150.84 12.8299C150.762 13.0823 150.724 13.3457 150.73 13.6099V17.1099H149.73V10.9099L150.71 10.8899Z" fill="#F5F5F5"/>
<path d="M157.43 8.52002V11.8C157.504 11.6127 157.621 11.445 157.77 11.31C157.913 11.1798 158.075 11.0719 158.25 10.99C158.432 10.9059 158.624 10.8422 158.82 10.8C159.007 10.7603 159.198 10.7402 159.39 10.74C159.731 10.7332 160.07 10.7909 160.39 10.91C160.645 11.0109 160.871 11.1722 161.05 11.38C161.219 11.5869 161.339 11.8297 161.4 12.09C161.471 12.3914 161.505 12.7004 161.5 13.01V17.09H160.5V12.89C160.514 12.7215 160.491 12.552 160.432 12.3934C160.373 12.2348 160.281 12.0909 160.161 11.9719C160.041 11.8528 159.896 11.7614 159.737 11.7041C159.578 11.6468 159.408 11.6249 159.24 11.64C158.963 11.6333 158.687 11.6844 158.43 11.79C158.214 11.881 158.019 12.0174 157.86 12.19C157.711 12.3749 157.596 12.5848 157.52 12.81C157.446 13.0635 157.409 13.3261 157.41 13.59V17.09H156.41V8.52002H157.43Z" fill="#F5F5F5"/>
<path d="M167.85 17.22C167.616 17.2338 167.386 17.1548 167.21 17C167.126 16.8994 167.062 16.7831 167.022 16.6579C166.983 16.5326 166.969 16.4008 166.98 16.27C166.715 16.5949 166.37 16.8463 165.98 17C165.598 17.1506 165.191 17.2253 164.78 17.22C164.511 17.2214 164.242 17.1912 163.98 17.13C163.746 17.0736 163.525 16.9716 163.33 16.83C163.139 16.6909 162.988 16.5049 162.89 16.29C162.772 16.0437 162.714 15.7731 162.72 15.5C162.707 15.1996 162.769 14.9007 162.9 14.63C163.013 14.4131 163.178 14.2276 163.38 14.09C163.582 13.944 163.809 13.8356 164.05 13.77C164.305 13.6889 164.566 13.6287 164.83 13.59C165.1 13.53 165.37 13.49 165.62 13.46C165.846 13.435 166.07 13.3949 166.29 13.34C166.456 13.3008 166.611 13.2218 166.74 13.11C166.8 13.0548 166.847 12.9863 166.877 12.91C166.906 12.8336 166.918 12.7515 166.91 12.67C166.918 12.4826 166.876 12.2966 166.79 12.13C166.705 12.0028 166.592 11.8968 166.46 11.82C166.323 11.7467 166.174 11.6992 166.02 11.68C165.857 11.6705 165.693 11.6705 165.53 11.68C165.154 11.6656 164.781 11.7519 164.45 11.93C164.294 12.0269 164.167 12.1649 164.084 12.329C164.001 12.493 163.965 12.6768 163.98 12.86H162.98C162.982 12.5127 163.065 12.1706 163.22 11.86C163.358 11.6025 163.557 11.3828 163.8 11.22C164.05 11.0463 164.332 10.9239 164.63 10.86C164.958 10.7857 165.294 10.7489 165.63 10.75C165.911 10.7501 166.192 10.7701 166.47 10.81C166.733 10.8461 166.988 10.9308 167.22 11.06C167.441 11.1845 167.627 11.3635 167.76 11.58C167.903 11.8507 167.972 12.1542 167.96 12.46V15.65C167.94 15.8261 167.94 16.0039 167.96 16.18C167.96 16.29 168.08 16.35 168.24 16.35C168.35 16.3479 168.459 16.3241 168.56 16.28V17.08C168.338 17.1839 168.095 17.232 167.85 17.22ZM166.42 14.1L165.76 14.21L165.07 14.3C164.857 14.3314 164.649 14.3885 164.45 14.47C164.271 14.5434 164.115 14.6645 164 14.82C163.871 14.9924 163.807 15.205 163.82 15.42C163.817 15.5707 163.855 15.7193 163.93 15.85C163.992 15.9637 164.081 16.06 164.19 16.13C164.308 16.2012 164.436 16.2551 164.57 16.29C164.718 16.3215 164.869 16.3382 165.02 16.34C165.316 16.3457 165.611 16.2982 165.89 16.2C166.105 16.1166 166.304 15.9984 166.48 15.85C166.622 15.7226 166.735 15.5656 166.81 15.39C166.878 15.2461 166.916 15.0894 166.92 14.93V13.93C166.764 14.0151 166.595 14.0726 166.42 14.1Z" fill="#F5F5F5"/>
<path d="M170.45 10.8898V12.1898C170.651 11.7466 170.965 11.3638 171.36 11.0798C171.771 10.8288 172.249 10.7101 172.73 10.7398V11.8199C172.389 11.8173 172.051 11.8749 171.73 11.9898C171.459 12.0909 171.218 12.2596 171.03 12.4799C170.85 12.7143 170.721 12.9832 170.65 13.2698C170.566 13.6167 170.525 13.9729 170.53 14.3298V17.0898H169.53V10.8898H170.45Z" fill="#F5F5F5"/>
<defs>
<linearGradient id="paint0_linear_280_701" x1="0" y1="13.23" x2="80.63" y2="13.23" gradientUnits="userSpaceOnUse">
<stop stop-color="#D14C1F"/>
<stop offset="0.53" stop-color="#F39200"/>
<stop offset="1" stop-color="#ECB800"/>
</linearGradient>
<linearGradient id="paint1_linear_280_701" x1="102.95" y1="13.23" x2="183.58" y2="13.23" gradientUnits="userSpaceOnUse">
<stop stop-color="#D14C1F"/>
<stop offset="0.53" stop-color="#F39200"/>
<stop offset="1" stop-color="#ECB800"/>
</linearGradient>
</defs>
</svg>
