<svg width="19" height="17" viewBox="0 0 19 17" fill="none" xmlns="http://www.w3.org/2000/svg">
<path d="M11.25 8.07148H13.3675C13.4827 8.07214 13.5968 8.05007 13.7034 8.00653C13.81 7.96298 13.907 7.89883 13.9887 7.81773L17.9963 3.81023C18.0783 3.72889 18.1434 3.63211 18.1878 3.52548C18.2322 3.41886 18.2551 3.30449 18.2551 3.18898C18.2551 3.07347 18.2322 2.9591 18.1878 2.85248C18.1434 2.74585 18.0783 2.64907 17.9963 2.56773L15.8788 0.45023C15.7974 0.368217 15.7006 0.303122 15.594 0.2587C15.4874 0.214277 15.373 0.191406 15.2575 0.191406C15.142 0.191406 15.0276 0.214277 14.921 0.2587C14.8144 0.303122 14.7176 0.368217 14.6363 0.45023L10.6287 4.45773C10.4689 4.62541 10.3782 4.84731 10.375 5.07898V7.19648C10.375 7.42854 10.4672 7.6511 10.6313 7.8152C10.7954 7.97929 11.0179 8.07148 11.25 8.07148ZM12.125 5.44648L15.2575 2.31398L16.1325 3.18898L13 6.32148H12.125V5.44648ZM17.375 7.19648C17.1429 7.19648 16.9204 7.28867 16.7563 7.45276C16.5922 7.61686 16.5 7.83942 16.5 8.07148V14.1965C16.5 14.4285 16.4078 14.6511 16.2437 14.8152C16.0796 14.9793 15.8571 15.0715 15.625 15.0715H3.375C3.14294 15.0715 2.92038 14.9793 2.75628 14.8152C2.59219 14.6511 2.5 14.4285 2.5 14.1965V5.78773L7.645 10.9415C7.88918 11.1888 8.18005 11.3852 8.50074 11.5193C8.82143 11.6533 9.16555 11.7224 9.51313 11.7224C9.8607 11.7224 10.2048 11.6533 10.5255 11.5193C10.8462 11.3852 11.1371 11.1888 11.3812 10.9415C11.5416 10.7779 11.6314 10.558 11.6314 10.329C11.6314 10.0999 11.5416 9.88004 11.3812 9.71648C11.2998 9.63314 11.2024 9.56692 11.095 9.52171C10.9876 9.4765 10.8722 9.45321 10.7556 9.45321C10.6391 9.45321 10.5237 9.4765 10.4162 9.52171C10.3088 9.56692 10.2115 9.63314 10.13 9.71648C9.96644 9.8768 9.74653 9.9666 9.5175 9.9666C9.28847 9.9666 9.06856 9.8768 8.905 9.71648L3.73375 4.55398H7.75C7.98206 4.55398 8.20462 4.46179 8.36872 4.2977C8.53281 4.1336 8.625 3.91104 8.625 3.67898C8.625 3.44691 8.53281 3.22436 8.36872 3.06026C8.20462 2.89617 7.98206 2.80398 7.75 2.80398H3.375C2.67881 2.80398 2.01113 3.08054 1.51884 3.57282C1.02656 4.06511 0.75 4.73279 0.75 5.42898V14.179C0.75 14.8752 1.02656 15.5429 1.51884 16.0351C2.01113 16.5274 2.67881 16.804 3.375 16.804H15.625C16.3212 16.804 16.9889 16.5274 17.4812 16.0351C17.9734 15.5429 18.25 14.8752 18.25 14.179V8.05398C18.25 7.82191 18.1578 7.59935 17.9937 7.43526C17.8296 7.27117 17.6071 7.17898 17.375 7.17898V7.19648Z" fill="#B8B7B7"/>
</svg>
