<svg width="48" height="49" viewBox="0 0 48 49" fill="none" xmlns="http://www.w3.org/2000/svg">
<path d="M27.9 48.9676C25.83 48.9676 23.76 48.9076 21.7 48.9676C20.3755 48.976 19.078 48.5933 17.97 47.8675C15.97 46.7076 13.91 45.6076 11.82 44.5976C11.0956 44.3192 10.326 44.1768 9.54999 44.1775C7.42999 44.0675 5.31 43.9976 3.19 43.9476C2.64052 43.9822 2.09236 43.8618 1.60794 43.6002C1.12352 43.3385 0.722303 42.9461 0.449982 42.4676C0.185082 42.0131 0.0309394 41.5027 0 40.9776C0 38.3276 0 35.6676 0 32.9776C0.0202119 32.2748 0.286592 31.6014 0.752655 31.0751C1.21872 30.5487 1.85484 30.2028 2.54999 30.0976C3.66999 29.9376 4.78999 29.8076 5.89999 29.5776C6.73999 29.3976 7.56 29.1076 8.38 28.8476C10.3032 28.286 12.3324 28.19 14.3 28.5676C15.1865 28.7138 16.0619 28.921 16.92 29.1876C18.4131 29.7302 19.8105 30.5065 21.06 31.4876C22.2281 32.3646 23.4397 33.1823 24.69 33.9376C25.5775 34.41 26.5429 34.7183 27.54 34.8476C29.76 35.1576 32 35.3276 34.23 35.5576C34.3689 35.5563 34.5072 35.5766 34.64 35.6175C34.9806 35.7737 35.3642 35.8093 35.7277 35.7184C36.0912 35.6275 36.4129 35.4156 36.64 35.1175C38.03 33.7875 39.44 32.4775 40.84 31.1175C41.3175 30.5693 41.9152 30.1387 42.5865 29.8594C43.2578 29.5802 43.9845 29.4597 44.71 29.5076C45.3553 29.6468 45.9575 29.9394 46.4658 30.3607C46.9741 30.7819 47.3734 31.3193 47.63 31.9275C47.8519 32.5236 47.9077 33.1687 47.7915 33.7939C47.6753 34.4192 47.3913 35.0012 46.97 35.4776C44.74 38.3476 42.56 41.2476 40.37 44.1476C39.85 44.8376 39.37 45.5676 38.92 46.2976C38.2651 47.3791 37.2697 48.2127 36.09 48.6676C35.6384 48.8131 35.1638 48.8742 34.69 48.8476C32.43 48.9776 30.17 48.9676 27.9 48.9676ZM27.9 46.1976C29.98 46.1976 32.07 46.1976 34.16 46.1976C34.6599 46.2324 35.1591 46.1204 35.5962 45.8752C36.0333 45.6301 36.3892 45.2624 36.62 44.8176C36.95 44.2776 37.3 43.7476 37.68 43.2376C40.04 40.0976 42.41 36.9642 44.79 33.8376C45.1 33.4376 45.17 33.0876 44.79 32.7076C44.7299 32.6139 44.6503 32.5343 44.5565 32.4743C44.4628 32.4143 44.3571 32.3754 44.2469 32.3602C44.1366 32.345 44.0244 32.3539 43.9179 32.3862C43.8114 32.4186 43.7132 32.4736 43.63 32.5476C43.43 32.6976 43.2 32.8076 43.02 32.9676C41.32 34.5276 39.62 36.0976 37.94 37.6876C37.858 37.7673 37.7948 37.8644 37.755 37.9716C37.7153 38.0789 37.6999 38.1936 37.71 38.3076C37.8656 38.8992 37.8684 39.5207 37.7179 40.1137C37.5675 40.7067 37.2689 41.2517 36.85 41.6976C36.4845 42.0847 36.0422 42.3914 35.5515 42.598C35.0608 42.8046 34.5324 42.9066 34 42.8976L24.46 43.3476C24.0042 43.3876 23.5458 43.3876 23.09 43.3476C21.742 43.072 20.4778 42.4827 19.4 41.6276C17.97 40.6876 16.56 39.7276 15.12 38.8076C14.9453 38.71 14.7944 38.5751 14.6778 38.4125C14.5612 38.2499 14.482 38.0637 14.4457 37.8669C14.4094 37.6702 14.417 37.4678 14.4678 37.2743C14.5187 37.0809 14.6116 36.901 14.74 36.7476C14.8605 36.5924 15.0113 36.4635 15.1832 36.3684C15.3551 36.2733 15.5445 36.2142 15.74 36.1946C15.9354 36.1749 16.1328 36.1952 16.3202 36.2541C16.5076 36.3131 16.681 36.4096 16.83 36.5376C18.32 37.5376 19.83 38.5376 21.3 39.5376C22.0362 40.1785 22.9654 40.5551 23.94 40.6076C26.75 40.4576 29.56 40.3376 32.37 40.1976C32.97 40.1976 33.57 40.1276 34.17 40.0676C34.3896 40.059 34.5986 39.9712 34.7585 39.8205C34.9185 39.6698 35.0184 39.4662 35.04 39.2476C35.0139 39.0272 34.9098 38.8234 34.7466 38.673C34.5834 38.5227 34.3718 38.4356 34.15 38.4275H33.84C31.54 38.1675 29.23 37.9576 26.94 37.6376C25.9772 37.5361 25.0378 37.2759 24.16 36.8675C22.8339 36.1752 21.5605 35.3865 20.35 34.5076C18.35 33.0676 16.35 31.6576 13.72 31.3376C11.8615 31.0715 9.96635 31.2497 8.19 31.8576C6.61165 32.4191 4.96213 32.7557 3.28998 32.8576C2.85998 32.8576 2.69998 33.0576 2.69998 33.4776C2.69998 35.8376 2.69998 38.1909 2.69998 40.5376C2.69998 40.9876 2.86999 41.1675 3.32999 41.1775C5.63999 41.2575 7.95999 41.3376 10.27 41.4576C11.5417 41.5215 12.7841 41.8628 13.91 42.4576C15.74 43.4576 17.58 44.4576 19.35 45.4576C20.1868 45.9718 21.1588 46.2226 22.14 46.1775C24.08 46.1575 25.96 46.1976 27.96 46.1976H27.9Z" fill="#CE8926"/>
<path d="M47.31 9.53743C47.3078 11.5549 46.7359 13.5308 45.66 15.2374C43.0576 19.345 39.7501 22.9605 35.89 25.9175C33.99 27.4675 32 28.9175 30.04 30.3575C29.8045 30.5375 29.5164 30.635 29.22 30.635C28.9236 30.635 28.6354 30.5375 28.4 30.3575C25.7636 28.5599 23.242 26.5994 20.85 24.4875C18.4202 22.413 16.2208 20.0829 14.29 17.5375C13.1269 16.0967 12.2142 14.4707 11.59 12.7274C11.0426 11.0207 10.9872 9.19426 11.43 7.45744C11.7382 6.07323 12.3588 4.77783 13.2445 3.6703C14.1302 2.56278 15.2574 1.67244 16.54 1.06743C18.0335 0.233332 19.7459 -0.125456 21.4487 0.0389236C23.1514 0.203303 24.7635 0.883046 26.07 1.98744C27.0378 2.80183 27.9593 3.66986 28.83 4.58745C29.12 4.87745 29.28 4.92745 29.58 4.58745C30.7432 3.21099 32.125 2.03527 33.67 1.10744C35.4022 0.117396 37.4374 -0.202825 39.39 0.207442C41.7576 0.648574 43.8736 1.96173 45.32 3.88743C46.5869 5.50048 47.2864 7.48643 47.31 9.53743ZM13.79 9.80745C13.9265 10.6201 14.1203 11.4221 14.37 12.2074C15.1815 14.0335 16.2748 15.7207 17.61 17.2074C20.9389 21.0046 24.7204 24.3797 28.87 27.2574C29.2 27.5074 29.4 27.4074 29.66 27.2074C31.93 25.3674 34.26 23.5874 36.47 21.6774C39.1498 19.4234 41.4493 16.7525 43.28 13.7674C43.9967 12.741 44.4251 11.5412 44.5205 10.293C44.6158 9.04474 44.3747 7.79376 43.8222 6.67039C43.2697 5.54702 42.4261 4.59235 41.3792 3.9059C40.3323 3.21944 39.1205 2.82631 37.87 2.76744C36.992 2.76632 36.1237 2.95109 35.3223 3.30958C34.5208 3.66808 33.8044 4.19221 33.22 4.84746C32.22 5.76746 31.39 6.79745 30.44 7.74745C30.2963 7.93607 30.111 8.08895 29.8985 8.1942C29.686 8.29944 29.4521 8.35417 29.215 8.35417C28.9779 8.35417 28.7439 8.29944 28.5314 8.1942C28.319 8.08895 28.1337 7.93607 27.99 7.74745C27.8 7.57745 27.63 7.36744 27.45 7.17744C26.63 6.31744 25.87 5.40745 24.99 4.61745C24.2126 3.79692 23.2172 3.21521 22.1208 2.94066C21.0243 2.6661 19.8723 2.71008 18.8 3.06743C17.371 3.53587 16.1222 4.43533 15.2251 5.6422C14.328 6.84906 13.8267 8.30413 13.79 9.80745Z" fill="#CE8926"/>
</svg>
