<svg width="15" height="17" viewBox="0 0 15 17" fill="none" xmlns="http://www.w3.org/2000/svg">
<path d="M5.91667 5.3335H10.6667C10.8766 5.3335 11.078 5.25009 11.2265 5.10162C11.3749 4.95316 11.4583 4.75179 11.4583 4.54183C11.4583 4.33187 11.3749 4.1305 11.2265 3.98204C11.078 3.83357 10.8766 3.75016 10.6667 3.75016H5.91667C5.7067 3.75016 5.50534 3.83357 5.35687 3.98204C5.20841 4.1305 5.125 4.33187 5.125 4.54183C5.125 4.75179 5.20841 4.95316 5.35687 5.10162C5.50534 5.25009 5.7067 5.3335 5.91667 5.3335ZM4.33333 8.50016H10.6667C10.8766 8.50016 11.078 8.41676 11.2265 8.26829C11.3749 8.11982 11.4583 7.91846 11.4583 7.7085C11.4583 7.49853 11.3749 7.29717 11.2265 7.1487C11.078 7.00024 10.8766 6.91683 10.6667 6.91683H4.33333C4.12337 6.91683 3.92201 7.00024 3.77354 7.1487C3.62507 7.29717 3.54167 7.49853 3.54167 7.7085C3.54167 7.91846 3.62507 8.11982 3.77354 8.26829C3.92201 8.41676 4.12337 8.50016 4.33333 8.50016ZM4.33333 11.6668H10.6667C10.8766 11.6668 11.078 11.5834 11.2265 11.435C11.3749 11.2865 11.4583 11.0851 11.4583 10.8752C11.4583 10.6652 11.3749 10.4638 11.2265 10.3154C11.078 10.1669 10.8766 10.0835 10.6667 10.0835H4.33333C4.12337 10.0835 3.92201 10.1669 3.77354 10.3154C3.62507 10.4638 3.54167 10.6652 3.54167 10.8752C3.54167 11.0851 3.62507 11.2865 3.77354 11.435C3.92201 11.5834 4.12337 11.6668 4.33333 11.6668ZM13.8333 0.583496H1.16667C0.956704 0.583496 0.75534 0.666904 0.606874 0.81537C0.458407 0.963836 0.375 1.1652 0.375 1.37516V15.6252C0.375 15.7722 0.415941 15.9163 0.493235 16.0414C0.570529 16.1664 0.681122 16.2675 0.812623 16.3333C0.944123 16.399 1.09133 16.4268 1.23776 16.4136C1.38419 16.4004 1.52405 16.3467 1.64167 16.2585L3.28042 15.0314L4.91125 16.2585C5.04828 16.3613 5.21496 16.4168 5.38625 16.4168C5.55754 16.4168 5.72422 16.3613 5.86125 16.2585L7.5 15.0314L9.13875 16.2585C9.27578 16.3613 9.44246 16.4168 9.61375 16.4168C9.78504 16.4168 9.95172 16.3613 10.0888 16.2585L11.7196 15.0314L13.3583 16.2585C13.4765 16.3466 13.617 16.3999 13.7638 16.4125C13.9107 16.4251 14.0581 16.3964 14.1896 16.3297C14.3201 16.264 14.4299 16.1633 14.5068 16.0389C14.5836 15.9146 14.6246 15.7714 14.625 15.6252V1.37516C14.625 1.1652 14.5416 0.963836 14.3931 0.81537C14.2447 0.666904 14.0433 0.583496 13.8333 0.583496ZM13.0417 14.0418L12.1946 13.4085C12.0575 13.3057 11.8909 13.2502 11.7196 13.2502C11.5483 13.2502 11.3816 13.3057 11.2446 13.4085L9.61375 14.6356L7.975 13.4085C7.83797 13.3057 7.67129 13.2502 7.5 13.2502C7.32871 13.2502 7.16203 13.3057 7.025 13.4085L5.38625 14.6356L3.75542 13.4085C3.61838 13.3057 3.45171 13.2502 3.28042 13.2502C3.10912 13.2502 2.94245 13.3057 2.80542 13.4085L1.95833 14.0418V2.16683H13.0417V14.0418Z" fill="#B8B7B7"/>
</svg>
