<svg width="13" height="16" viewBox="0 0 13 16" fill="none" xmlns="http://www.w3.org/2000/svg">
<path d="M0.890225 4.74003C0.740225 4.74003 0.60023 4.74003 0.52023 4.74003C0.44023 4.74003 0.100227 4.51003 0.0802271 4.36003C-0.0141743 3.99948 -0.0254295 3.62219 0.0473291 3.25666C0.120088 2.89114 0.274941 2.54692 0.50021 2.25001C0.678529 2.04678 0.89857 1.88441 1.14535 1.77397C1.39213 1.66352 1.65984 1.6076 1.9302 1.61003H3.7402C3.81529 1.34574 3.91227 1.08816 4.03018 0.840007C4.15237 0.590587 4.34143 0.380012 4.57626 0.2317C4.81109 0.0833877 5.08247 0.00316632 5.3602 1.04129e-05C5.9502 1.04129e-05 6.5302 1.04129e-05 7.1202 1.04129e-05C7.50587 -0.0013634 7.87966 0.133242 8.17593 0.380137C8.4722 0.627033 8.67201 0.97043 8.7402 1.35002L8.81021 1.57002H10.5002C10.7649 1.54467 11.0319 1.57728 11.2826 1.6656C11.5334 1.75391 11.7619 1.8958 11.9522 2.0814C12.1426 2.267 12.2902 2.49183 12.3849 2.74028C12.4795 2.98872 12.5189 3.25483 12.5002 3.52003C12.5002 3.71003 12.5002 3.89003 12.5002 4.08003C12.5002 4.53003 12.3402 4.69001 11.8802 4.72001H11.6602V13.08C11.6795 13.3735 11.6357 13.6676 11.5318 13.9428C11.4279 14.2179 11.2664 14.4676 11.0579 14.675C10.8495 14.8825 10.5991 15.043 10.3235 15.1456C10.0479 15.2482 9.75353 15.2906 9.46017 15.27H3.12021C2.82936 15.2875 2.53813 15.2431 2.26571 15.1398C1.99329 15.0364 1.74585 14.8764 1.53982 14.6704C1.33379 14.4644 1.17383 14.2169 1.07046 13.9445C0.967096 13.6721 0.922713 13.3809 0.940212 13.09V4.72001L0.890225 4.74003ZM10.5302 4.74003H1.98019V13.03C1.94388 13.1947 1.94984 13.3659 1.99746 13.5277C2.04509 13.6895 2.13284 13.8366 2.25259 13.9554C2.37234 14.0741 2.52022 14.1606 2.6824 14.2069C2.84458 14.2532 3.01582 14.2577 3.1802 14.22H9.31021C10.1502 14.22 10.5302 13.84 10.5302 13V4.74003V4.74003ZM11.3702 3.61003C11.3702 3.00003 11.1102 2.66001 10.5302 2.66001H1.96017C1.83847 2.64648 1.71535 2.66336 1.60177 2.70915C1.4882 2.75493 1.38777 2.82819 1.30948 2.92234C1.23118 3.0165 1.17747 3.12862 1.15316 3.24864C1.12886 3.36866 1.13469 3.49283 1.17019 3.61003H11.3702ZM7.6202 1.55003L7.69021 1.46C7.54021 1.33 7.40021 1.09003 7.25021 1.08003C6.58402 1.04431 5.9164 1.04431 5.25021 1.08003C5.19271 1.08498 5.13678 1.10144 5.08578 1.12846C5.03478 1.15548 4.98979 1.19249 4.9534 1.23728C4.917 1.28208 4.89 1.33372 4.87399 1.38917C4.85798 1.44462 4.85327 1.50271 4.8602 1.56001L7.6202 1.55003Z" fill="#CE8926"/>
<path d="M6.7901 9.55033V11.9203C6.7901 12.3203 6.60009 12.5503 6.28009 12.5703C6.19813 12.5724 6.11669 12.5567 6.04132 12.5244C5.96596 12.4922 5.89844 12.444 5.84339 12.3833C5.78833 12.3225 5.74708 12.2506 5.72235 12.1724C5.69762 12.0943 5.69004 12.0117 5.70014 11.9303C5.70014 10.3503 5.70014 8.77031 5.70014 7.19031C5.70014 6.79031 5.94013 6.53032 6.26013 6.54032C6.58013 6.55032 6.7901 6.7903 6.7901 7.2103V9.55033Z" fill="#CE8926"/>
<path d="M7.89014 9.55032C7.89014 8.77032 7.89014 7.99029 7.89014 7.21029C7.89014 6.81029 8.1001 6.55031 8.4201 6.54031C8.7401 6.53031 8.9701 6.8003 8.9801 7.2203V11.9003C8.9801 12.3003 8.77013 12.5603 8.45013 12.5703C8.13013 12.5803 7.89014 12.3103 7.89014 11.8903C7.89014 11.1103 7.89014 10.3503 7.89014 9.55032Z" fill="#CE8926"/>
<path d="M4.60004 9.57004C4.60004 10.35 4.60004 11.13 4.60004 11.91C4.60004 12.33 4.40007 12.57 4.07007 12.57C3.74007 12.57 3.54004 12.33 3.54004 11.91V7.20004C3.54004 6.79004 3.75007 6.54004 4.07007 6.54004C4.39007 6.54004 4.60004 6.79004 4.60004 7.20004C4.60004 7.99004 4.60004 8.78004 4.60004 9.57004Z" fill="#CE8926"/>
</svg>
