<svg width="87" height="30" viewBox="0 0 87 30" fill="none" xmlns="http://www.w3.org/2000/svg">
<path d="M72.38 0H14.58C6.52767 0 0 6.52764 0 14.58C0 22.6323 6.52767 29.1599 14.58 29.1599H72.38C80.4323 29.1599 86.96 22.6323 86.96 14.58C86.96 6.52764 80.4323 0 72.38 0Z" fill="url(#paint0_linear_280_697)"/>
<path d="M33.61 10.25V11.25H28.7199V14.0199H33.2499V15.0199H28.7199V18.0199H33.61V19.0199H27.5599V10.2999L33.61 10.25Z" fill="#F5F5F5"/>
<path d="M35.85 12.6595V13.6595C36.0433 13.3007 36.3329 13.0031 36.6862 12.7999C37.0396 12.5967 37.4426 12.4961 37.85 12.5095C38.1908 12.5061 38.5294 12.5637 38.85 12.6795C39.1064 12.7874 39.3353 12.9514 39.52 13.1595C39.6944 13.372 39.8176 13.6217 39.88 13.8895C39.9511 14.1943 39.9847 14.5066 39.98 14.8195V18.9696H38.98V14.6995C38.9937 14.5284 38.97 14.3563 38.9104 14.1953C38.8508 14.0343 38.7568 13.8882 38.6349 13.7673C38.513 13.6464 38.3662 13.5535 38.2047 13.4952C38.0432 13.4369 37.871 13.4144 37.7 13.4295C37.4193 13.4234 37.1403 13.4745 36.88 13.5796C36.6552 13.6653 36.4557 13.8063 36.3 13.9896C36.1413 14.1734 36.0222 14.3878 35.95 14.6196C35.8674 14.8747 35.8268 15.1414 35.83 15.4095V18.9696H34.83V12.6595H35.85Z" fill="#F5F5F5"/>
<path d="M43.3999 18.9697L41.0599 12.6597H42.2199L43.9899 17.9197L45.7099 12.6597H46.7999L44.4899 18.9697H43.3999Z" fill="#F5F5F5"/>
<path d="M47.83 11.5199V10.25H48.83V11.5199H47.83ZM48.83 12.6599V18.97H47.83V12.6599H48.83Z" fill="#F5F5F5"/>
<path d="M55.33 19.1099C55.0948 19.1199 54.8651 19.0373 54.69 18.8799C54.6026 18.7788 54.5363 18.6613 54.4951 18.5342C54.4539 18.4071 54.4386 18.2729 54.45 18.1398C54.1841 18.4664 53.8402 18.721 53.45 18.8799C53.0583 19.0338 52.6409 19.1119 52.22 19.1099C51.9475 19.1112 51.6757 19.0809 51.41 19.0198C51.1729 18.9578 50.9492 18.8527 50.75 18.7098C50.5564 18.567 50.4017 18.3778 50.3 18.1598C50.1812 17.9067 50.123 17.6294 50.13 17.3499C50.1185 17.0463 50.1802 16.7445 50.31 16.4698C50.4318 16.2506 50.5989 16.0596 50.8 15.9098C51.0059 15.7637 51.2362 15.6554 51.48 15.5898C51.74 15.5198 52 15.4598 52.27 15.4098C52.54 15.3598 52.82 15.3098 53.08 15.2798C53.3091 15.2547 53.5362 15.2146 53.76 15.1598C53.9278 15.1161 54.0845 15.0378 54.22 14.9298C54.2795 14.8717 54.3255 14.8014 54.3548 14.7236C54.3842 14.6459 54.3962 14.5627 54.39 14.4799C54.4005 14.2878 54.3554 14.0968 54.26 13.9298C54.1847 13.7924 54.0697 13.681 53.93 13.6099C53.7903 13.5351 53.6376 13.4876 53.48 13.4698C53.317 13.455 53.153 13.455 52.99 13.4698C52.6077 13.4543 52.2281 13.5406 51.89 13.7198C51.7279 13.8283 51.5977 13.9783 51.5133 14.1542C51.4289 14.3301 51.3932 14.5255 51.41 14.7198H50.41C50.4046 14.3716 50.4872 14.0277 50.65 13.7198C50.7914 13.456 50.9936 13.2297 51.24 13.0598C51.4973 12.8924 51.7814 12.7707 52.08 12.6998C52.4084 12.627 52.7437 12.5902 53.08 12.5898C53.3644 12.5899 53.6484 12.6099 53.93 12.6498C54.1958 12.6891 54.4529 12.7736 54.69 12.8998C54.9173 13.0288 55.1069 13.215 55.24 13.4398C55.3925 13.7108 55.4653 14.0193 55.45 14.3298V17.5798C55.4296 17.7559 55.4296 17.9338 55.45 18.1099C55.45 18.2299 55.58 18.2798 55.74 18.2798C55.8491 18.2758 55.9569 18.2556 56.06 18.2198V19.0298C55.8266 19.1145 55.5762 19.1421 55.33 19.1099ZM53.88 15.9298L53.21 16.0398L52.51 16.1299C52.2933 16.1632 52.0816 16.2236 51.88 16.3098C51.698 16.383 51.5391 16.5039 51.42 16.6598C51.2932 16.8409 51.2298 17.0589 51.24 17.2798C51.2339 17.4295 51.2685 17.5782 51.34 17.7098C51.4084 17.8246 51.5005 17.9235 51.61 17.9999C51.7296 18.0737 51.8618 18.1245 52 18.1498C52.1506 18.1862 52.3052 18.203 52.46 18.1998C52.7596 18.2105 53.0585 18.1629 53.34 18.0598C53.5595 17.9802 53.7627 17.8617 53.94 17.7098C54.083 17.5808 54.1986 17.4244 54.28 17.2499C54.3474 17.0985 54.3848 16.9354 54.39 16.7698V15.7098C54.2374 15.8182 54.0636 15.8932 53.88 15.9298Z" fill="#F5F5F5"/>
<path d="M57.98 12.6597V13.9898C58.1906 13.5385 58.5102 13.1467 58.91 12.8497C59.3316 12.5975 59.8197 12.4789 60.31 12.5097V13.6098C59.9461 13.6028 59.5838 13.6602 59.24 13.7797C58.9653 13.8844 58.7212 14.0563 58.53 14.2797C58.3511 14.5196 58.2188 14.791 58.14 15.0797C58.0562 15.4335 58.0159 15.7961 58.02 16.1597V18.9697H57.02V12.6597H57.98Z" fill="#F5F5F5"/>
<defs>
<linearGradient id="paint0_linear_280_697" x1="0" y1="14.58" x2="86.96" y2="14.58" gradientUnits="userSpaceOnUse">
<stop stop-color="#D14C1F"/>
<stop offset="0.53" stop-color="#F39200"/>
<stop offset="1" stop-color="#ECB800"/>
</linearGradient>
</defs>
</svg>
